<?xml version="1.0" standalone="no"?><!-- Generator: Gravit.io --><svg xmlns="http://www.w3.org/2000/svg" xmlns:xlink="http://www.w3.org/1999/xlink" style="isolation:isolate" viewBox="0 0 500 500" width="500" height="500"><defs><clipPath id="_clipPath_oaaNpKUfT501691JhmLmW2cAbiOXTcHN"><rect width="500" height="500"/></clipPath></defs><g clip-path="url(#_clipPath_oaaNpKUfT501691JhmLmW2cAbiOXTcHN)"><path d=" M 480 480 C 472.101 390.703 372.066 320 250 320 C 127.934 320 27.899 390.703 20 480 L 480 480 Z " fill="rgb(0,84,211)"/><rect x="231" y="200" width="40" height="140" transform="matrix(1,0,0,1,0,0)" fill="rgb(0,84,211)"/><path d=" M 243.757 41.579 C 197.057 50.001 161.579 90.89 161.579 140 C 161.579 195.192 206.388 240 261.579 240 C 310.689 240 351.578 204.522 360 157.822 C 345.252 183.044 317.88 200 286.579 200 C 239.666 200 201.579 161.913 201.579 115 C 201.579 83.699 218.535 56.327 243.757 41.579 Z " fill="rgb(0,84,211)"/><path d=" M 221 320 C 221 303.443 234.443 290 251 290 C 267.557 290 281 303.443 281 320 C 281 336.557 267.557 350 251 350 C 234.443 350 221 336.557 221 320 Z " fill="rgb(0,84,211)"/></g></svg>